<svg width="318" height="96" viewBox="0 0 318 96" fill="none" xmlns="http://www.w3.org/2000/svg">
<path d="M135.938 27.4062H151.938C153.583 27.4062 155.156 27.5208 156.656 27.75C158.177 27.9792 159.583 28.3854 160.875 28.9688C162.167 29.5521 163.344 30.3646 164.406 31.4062C165.469 32.4479 166.375 33.7812 167.125 35.4062C167.875 37.0312 168.448 38.9896 168.844 41.2812C169.26 43.5729 169.469 46.2604 169.469 49.3438C169.469 52.5312 169.281 55.3125 168.906 57.6875C168.531 60.0417 167.99 62.0625 167.281 63.75C166.573 65.4167 165.708 66.7917 164.688 67.875C163.667 68.9375 162.5 69.7812 161.188 70.4062C159.896 71.0104 158.469 71.4271 156.906 71.6562C155.365 71.8854 153.708 72 151.938 72H135.938V27.4062ZM149.906 65.0312C150.969 65.0312 152 65.0104 153 64.9688C154 64.9062 154.927 64.7188 155.781 64.4062C156.656 64.0938 157.448 63.625 158.156 63C158.885 62.3542 159.5 61.4479 160 60.2812C160.521 59.1146 160.917 57.6458 161.188 55.875C161.479 54.0833 161.625 51.8854 161.625 49.2812C161.625 46.8646 161.49 44.8229 161.219 43.1562C160.948 41.4688 160.562 40.0729 160.062 38.9688C159.562 37.8646 158.958 37.0104 158.25 36.4062C157.562 35.7812 156.781 35.3229 155.906 35.0312C155.031 34.7188 154.083 34.5312 153.062 34.4688C152.062 34.4062 151.01 34.375 149.906 34.375H143.438V65.0312H149.906ZM176 55.1562C176 51.7188 176.448 48.8958 177.344 46.6875C178.24 44.4792 179.427 42.7396 180.906 41.4688C182.385 40.1979 184.073 39.3229 185.969 38.8438C187.865 38.3438 189.812 38.0938 191.812 38.0938C194.333 38.0938 196.417 38.4375 198.062 39.125C199.729 39.8125 201.052 40.7812 202.031 42.0312C203.01 43.2604 203.698 44.7396 204.094 46.4688C204.49 48.1979 204.688 50.1042 204.688 52.1875C204.688 53.1667 204.646 54.1771 204.562 55.2188C204.5 56.2604 204.406 57.3333 204.281 58.4375H183.625C183.646 59.9167 183.802 61.1667 184.094 62.1875C184.406 63.1875 184.906 64.0104 185.594 64.6562C186.302 65.2812 187.229 65.7396 188.375 66.0312C189.542 66.3021 190.99 66.4375 192.719 66.4375C194.177 66.4375 195.542 66.4062 196.812 66.3438C198.083 66.2604 199.198 66.1667 200.156 66.0625C201.281 65.9583 202.302 65.8229 203.219 65.6562V70.8438C202.156 71.2396 201 71.5938 199.75 71.9062C198.688 72.1771 197.448 72.4167 196.031 72.625C194.615 72.8542 193.104 72.9688 191.5 72.9688C189.042 72.9688 186.854 72.6562 184.938 72.0312C183.021 71.4271 181.396 70.4271 180.062 69.0312C178.75 67.6146 177.74 65.7708 177.031 63.5C176.344 61.2292 176 58.4479 176 55.1562ZM197.844 52.875V51.6875C197.844 50.4375 197.76 49.3542 197.594 48.4375C197.448 47.5 197.135 46.7292 196.656 46.125C196.177 45.5208 195.5 45.0729 194.625 44.7812C193.75 44.4896 192.583 44.3438 191.125 44.3438C189.562 44.3438 188.281 44.5312 187.281 44.9062C186.302 45.2604 185.531 45.8021 184.969 46.5312C184.427 47.2396 184.052 48.125 183.844 49.1875C183.656 50.25 183.562 51.4792 183.562 52.875H197.844ZM212.688 27.4062H230.156C232.344 27.4062 234.208 27.6562 235.75 28.1562C237.292 28.6354 238.552 29.3854 239.531 30.4062C240.531 31.4062 241.26 32.6771 241.719 34.2188C242.177 35.7396 242.406 37.5417 242.406 39.625C242.406 41.3958 242.219 42.8333 241.844 43.9375C241.49 45.0417 241.042 45.9167 240.5 46.5625C239.958 47.2083 239.354 47.6771 238.688 47.9688C238.021 48.2396 237.396 48.4375 236.812 48.5625V48.625C237.188 48.6667 237.635 48.7604 238.156 48.9062C238.677 49.0312 239.219 49.2396 239.781 49.5312C240.344 49.8021 240.896 50.1771 241.438 50.6562C241.979 51.1146 242.469 51.7083 242.906 52.4375C243.344 53.1667 243.698 54.0521 243.969 55.0938C244.24 56.1146 244.375 57.3125 244.375 58.6875C244.375 61.4375 244.104 63.6771 243.562 65.4062C243.021 67.1354 242.198 68.4896 241.094 69.4688C240.01 70.4479 238.625 71.1146 236.938 71.4688C235.271 71.8229 233.312 72 231.062 72H212.688V27.4062ZM228.688 46.2188C229.812 46.2188 230.771 46.1458 231.562 46C232.354 45.8542 233 45.5625 233.5 45.125C234.021 44.6667 234.396 44.0312 234.625 43.2188C234.854 42.4062 234.969 41.3333 234.969 40C234.969 38.8958 234.833 37.9792 234.562 37.25C234.292 36.5 233.896 35.9062 233.375 35.4688C232.854 35.0312 232.208 34.7188 231.438 34.5312C230.688 34.3438 229.833 34.25 228.875 34.25H220.188V46.2188H228.688ZM230.156 65.1562C231.115 65.1562 231.979 65.0833 232.75 64.9375C233.542 64.7708 234.208 64.4583 234.75 64C235.312 63.5417 235.74 62.9062 236.031 62.0938C236.344 61.2604 236.5 60.1667 236.5 58.8125C236.5 57.4583 236.365 56.375 236.094 55.5625C235.844 54.7292 235.438 54.0938 234.875 53.6562C234.333 53.2188 233.635 52.9375 232.781 52.8125C231.948 52.6667 230.948 52.5938 229.781 52.5938H220.188V65.1562H230.156ZM250.938 55.5C250.938 52.7083 251.24 50.2396 251.844 48.0938C252.448 45.9271 253.385 44.1042 254.656 42.625C255.948 41.1458 257.573 40.0208 259.531 39.25C261.49 38.4792 263.833 38.0938 266.562 38.0938C269.292 38.0938 271.635 38.4792 273.594 39.25C275.573 40.0208 277.198 41.1458 278.469 42.625C279.74 44.1042 280.677 45.9271 281.281 48.0938C281.885 50.2396 282.188 52.7083 282.188 55.5C282.188 58.2917 281.885 60.7812 281.281 62.9688C280.677 65.1354 279.74 66.9583 278.469 68.4375C277.198 69.9167 275.573 71.0417 273.594 71.8125C271.635 72.5833 269.292 72.9688 266.562 72.9688C263.833 72.9688 261.49 72.5833 259.531 71.8125C257.573 71.0417 255.948 69.9167 254.656 68.4375C253.385 66.9583 252.448 65.1354 251.844 62.9688C251.24 60.7812 250.938 58.2917 250.938 55.5ZM266.562 66.6875C268.208 66.6875 269.542 66.4479 270.562 65.9688C271.583 65.4688 272.375 64.75 272.938 63.8125C273.5 62.8542 273.875 61.6875 274.062 60.3125C274.271 58.9167 274.375 57.3125 274.375 55.5C274.375 53.7083 274.271 52.125 274.062 50.75C273.875 49.3542 273.5 48.1875 272.938 47.25C272.375 46.2917 271.583 45.5729 270.562 45.0938C269.542 44.5938 268.208 44.3438 266.562 44.3438C264.938 44.3438 263.615 44.5938 262.594 45.0938C261.573 45.5729 260.771 46.2917 260.188 47.25C259.625 48.1875 259.24 49.3542 259.031 50.75C258.844 52.125 258.75 53.7083 258.75 55.5C258.75 57.3125 258.844 58.9167 259.031 60.3125C259.24 61.6875 259.625 62.8542 260.188 63.8125C260.771 64.75 261.573 65.4688 262.594 65.9688C263.615 66.4479 264.938 66.6875 266.562 66.6875ZM297.406 55.2188L286.25 39.0312H295.094L302.188 49.3125L309.188 39.0312H317.25L306.156 55.0625L317.875 72H309.031L301.375 60.9375L293.312 72H285.25L297.406 55.2188Z" fill="white"/>
<path d="M0 19.1998C0 8.59589 8.59613 -0.000244141 19.2 -0.000244141H76.8C87.4039 -0.000244141 96 8.59589 96 19.1998V76.7998C96 87.4036 87.4039 95.9998 76.8 95.9998H19.2C8.59613 95.9998 0 87.4036 0 76.7998V19.1998Z" fill="#3AEB80"/>
<mask id="mask0_927_169343" style="mask-type:alpha" maskUnits="userSpaceOnUse" x="16" y="22" width="64" height="66">
<path d="M16 22.3997H80V87.9997H16V22.3997Z" fill="#D9D9D9"/>
</mask>
<g mask="url(#mask0_927_169343)">
<path fill-rule="evenodd" clip-rule="evenodd" d="M16 35.1003C16 28.9688 21.0123 23.9983 27.1954 23.9983H69.7378C75.9208 23.9983 80.9331 28.9688 80.9331 35.1003V40.651H75.7831C71.5786 40.651 68.1702 44.031 68.1702 48.2004C68.1702 52.3698 71.5786 55.7497 75.7831 55.7497H80.9331V61.7451C80.9331 67.8765 75.9208 72.8471 69.7378 72.8471H36.5983L36.5994 72.8473L25.404 78.3983V72.7057C20.0725 71.8555 16 67.2719 16 61.7451V35.1003ZM80.9331 55.7497H85.1872C89.3916 55.7497 92.8 52.3698 92.8 48.2004C92.8 44.031 89.3916 40.651 85.1872 40.651H80.9331V55.7497Z" fill="white"/>
<path d="M81.6001 48.7993C81.6001 51.0085 79.8092 52.7993 77.6001 52.7993C75.391 52.7993 73.6001 51.0085 73.6001 48.7993C73.6001 46.5902 75.391 44.7993 77.6001 44.7993C79.8092 44.7993 81.6001 46.5902 81.6001 48.7993Z" fill="white"/>
</g>
</svg>
